HIERARCHY
ROOT Pelvis
{
	OFFSET 0.000000 0.000000 0.000000
	CHANNELS 6 Xposition Yposition Zposition Xrotation Yrotation Zrotation
	JOINT LeftUpLeg_virtual
	{
		OFFSET 0.000000 0.000000 0.000000
		CHANNELS 3 Xrotation Yrotation Zrotation
		JOINT LeftUpLeg
		{
			OFFSET 18.735201 -5.666702 -4.541200
			CHANNELS 3 Xrotation Yrotation Zrotation
			JOINT LeftLeg
			{
				OFFSET -0.021200 -31.938179 0.493100
				CHANNELS 3 Xrotation Yrotation Zrotation
				JOINT LeftFoot
				{
					OFFSET 0.021200 -31.938179 -4.336299
					CHANNELS 3 Xrotation Yrotation Zrotation
					JOINT LeftToeBase
					{
						OFFSET 0.943001 -26.722000 15.023500
						CHANNELS 3 Xrotation Yrotation Zrotation
						End Site
						{
							OFFSET 0 0 0
						}
					}
				}
			}
		}
	}
	JOINT RightUpLeg_virtual
	{
		OFFSET 0.000000 0.000000 0.000000
		CHANNELS 3 Xrotation Yrotation Zrotation
		JOINT RightUpLeg
		{
			OFFSET -18.735201 -5.666702 -4.541200
			CHANNELS 3 Xrotation Yrotation Zrotation
			JOINT RightLeg
			{
				OFFSET 0.018946 -31.938133 0.493100
				CHANNELS 3 Xrotation Yrotation Zrotation
				JOINT RightFoot
				{
					OFFSET -0.018946 -31.938126 -4.336299
					CHANNELS 3 Xrotation Yrotation Zrotation
					JOINT RightToeBase
					{
						OFFSET -0.943001 -26.722004 15.023500
						CHANNELS 3 Xrotation Yrotation Zrotation
						End Site
						{
							OFFSET 0 0 0
						}
					}
				}
			}
		}
	}
	JOINT Hips_virtual
	{
		OFFSET 0.000000 0.000000 0.000000
		CHANNELS 3 Xrotation Yrotation Zrotation
		JOINT Hips
		{
			OFFSET -0.000000 -0.000000 -0.000000
			CHANNELS 3 Xrotation Yrotation Zrotation
			JOINT Spine
			{
				OFFSET 0.000000 10.199997 -0.299500
				CHANNELS 3 Xrotation Yrotation Zrotation
				JOINT Spine1
				{
					OFFSET 0.000000 11.900002 -1.516600
					CHANNELS 3 Xrotation Yrotation Zrotation
					JOINT Spine2
					{
						OFFSET 0.000000 13.600006 -2.842500
						CHANNELS 3 Xrotation Yrotation Zrotation
						JOINT Neck_virtual
						{
							OFFSET 0.000000 0.000000 0.000000
							CHANNELS 3 Xrotation Yrotation Zrotation
							JOINT Neck
							{
								OFFSET 0.000000 9.624100 -2.890100
								CHANNELS 3 Xrotation Yrotation Zrotation
								JOINT Head
								{
									OFFSET 0.000000 14.068802 -1.351900
									CHANNELS 3 Xrotation Yrotation Zrotation
									End Site
									{
										OFFSET 0 0 0
									}
								}
							}
						}
						JOINT LeftShoulder_virtual
						{
							OFFSET 0.000000 0.000000 0.000000
							CHANNELS 3 Xrotation Yrotation Zrotation
							JOINT LeftShoulder
							{
								OFFSET 15.263000 10.923401 -0.547700
								CHANNELS 3 Xrotation Yrotation Zrotation
								JOINT LeftArm
								{
									OFFSET 25.438599 -2.830597 -13.032500
									CHANNELS 3 Xrotation Yrotation Zrotation
									JOINT LeftForeArm
									{
										OFFSET 29.960503 0.000000 0.000000
										CHANNELS 3 Xrotation Yrotation Zrotation
										JOINT LeftHand
										{
											OFFSET 27.849251 0.000000 0.000000
											CHANNELS 3 Xrotation Yrotation Zrotation
											End Site
											{
												OFFSET 0 0 0
											}
										}
									}
								}
							}
						}
						JOINT RightShoulder_virtual
						{
							OFFSET 0.000000 0.000000 0.000000
							CHANNELS 3 Xrotation Yrotation Zrotation
							JOINT RightShoulder
							{
								OFFSET -15.263000 10.923401 -0.547700
								CHANNELS 3 Xrotation Yrotation Zrotation
								JOINT RightArm
								{
									OFFSET -25.438599 -2.830597 -13.032500
									CHANNELS 3 Xrotation Yrotation Zrotation
									JOINT RightForeArm
									{
										OFFSET -29.960503 0.000000 0.000000
										CHANNELS 3 Xrotation Yrotation Zrotation
										JOINT RightHand
										{
											OFFSET -27.849251 0.000000 0.000000
											CHANNELS 3 Xrotation Yrotation Zrotation
											End Site
											{
												OFFSET 0 0 0
											}
										}
									}
								}
							}
						}
					}
				}
			}
		}
	}
}
MOTION
Frames: 8
Frame Time: 0.03333333
10.076392 93.667717 17.530304 0.000000 0.000000 0.000000 -1.316622 5.925184 -5.716655 2.370142 10.554481 10.210884 22.050345 -7.215192 -0.266649 -24.455960 2.493875 -1.426969 0.000000 0.000000 0.000000 -1.316622 5.925184 -5.716655 -35.916823 -6.341957 -3.738052 34.225880 0.620710 1.281806 1.695748 0.506641 8.623052 0.000000 0.000000 0.000000 -1.316622 5.925184 -5.716655 0.000000 0.000000 0.000000 10.003667 -1.258758 3.120563 1.871314 -1.420407 1.481033 0.000000 0.000000 0.000000 -3.085457 -1.618651 0.047468 -0.474011 -0.462178 1.293996 0.000000 0.000000 0.000000 -3.085457 -1.618651 0.047468 1.744052 -3.421884 -0.743977 -7.039699 -12.744838 -76.200008 9.887313 -11.719664 -4.534070 0.000000 0.000000 0.000000 -3.085457 -1.618651 0.047468 2.245581 4.208255 6.197044 0.519966 4.376573 72.028832 11.172628 15.288352 2.172151 0.000000 0.000000 0.000000 
10.014088 93.224365 19.340965 0.000000 0.000000 0.000000 -1.044973 6.135871 -5.779642 4.141291 10.368681 10.388582 21.206851 -7.032683 -0.285435 -25.624980 2.659288 -1.837392 0.000000 0.000000 0.000000 -1.044973 6.135871 -5.779642 -33.822465 -6.849397 -3.018654 25.410339 2.625625 1.309282 -0.053241 0.516802 7.895501 0.000000 0.000000 0.000000 -1.044973 6.135871 -5.779642 0.000000 0.000000 -0.000001 10.278819 -1.421853 2.776388 1.530882 -1.655979 1.713172 0.000000 0.000000 0.000000 -3.029681 -1.822409 0.405165 -0.575455 -0.448377 1.241437 0.000000 0.000000 0.000000 -3.029681 -1.822409 0.405165 1.734722 -2.975680 -1.007657 -6.950068 -13.745414 -75.686863 9.739468 -12.702277 -4.881130 0.000000 0.000000 0.000000 -3.029681 -1.822410 0.405165 2.341272 3.697851 6.000389 0.577672 4.244794 72.228472 11.271328 14.839597 2.930558 0.000000 0.000000 0.000000 
9.884462 92.778275 21.296379 0.000000 0.000000 0.000000 -0.722845 6.486725 -5.700454 5.509223 10.143933 10.682521 20.813789 -7.233750 -0.455544 -26.418916 2.924657 -2.138122 0.000000 0.000000 0.000000 -0.722845 6.486725 -5.700454 -31.860886 -7.290738 -2.733961 17.745888 3.017323 1.602937 -1.607119 1.294834 6.904106 0.000000 0.000000 0.000000 -0.722845 6.486725 -5.700454 0.000000 0.000000 0.000000 10.738851 -1.613895 2.277990 0.862137 -1.917848 2.026344 0.000000 0.000000 0.000000 -3.297927 -2.045511 0.855363 -0.541786 -0.431641 1.095863 0.000000 0.000000 0.000000 -3.297927 -2.045511 0.855363 1.733735 -2.483402 -1.370492 -6.732596 -14.418225 -75.287843 10.256395 -13.631159 -5.186327 0.000000 0.000000 0.000000 -3.297927 -2.045511 0.855363 2.386605 3.103078 5.622620 1.342292 4.454615 72.514684 10.835921 14.812587 3.464561 0.000000 0.000000 0.000000 
9.699972 92.318832 23.348814 0.000000 0.000000 0.000000 -0.477926 6.931023 -5.453272 6.961343 9.984511 10.904079 20.349405 -7.410321 -0.590447 -26.892478 3.126339 -2.578060 0.000000 0.000000 0.000000 -0.477926 6.931023 -5.453272 -30.808302 -7.773408 -2.123824 13.190137 3.897548 0.864613 -4.290902 1.030193 5.754402 0.000000 0.000000 0.000000 -0.477926 6.931023 -5.453272 0.000000 -0.000001 0.000000 11.191715 -1.860860 1.736652 0.235685 -2.232094 2.351253 0.000000 0.000000 0.000000 -3.522574 -2.316607 1.321168 -0.481997 -0.387991 0.921762 0.000000 0.000000 0.000000 -3.522574 -2.316607 1.321168 1.744293 -1.890688 -2.064281 -6.496885 -15.195416 -74.597332 10.432929 -14.507989 -5.620994 0.000000 0.000000 0.000000 -3.522574 -2.316607 1.321168 2.430738 3.001840 5.025310 2.288176 4.957960 72.956761 9.695924 15.072114 3.859021 0.000000 0.000000 0.000000 
9.481892 91.835403 25.557137 0.000000 0.000000 0.000000 -0.152922 7.531440 -5.200988 8.424134 9.723838 11.172572 19.782594 -7.262398 -0.660582 -27.147075 3.241860 -3.288543 0.000000 0.000000 0.000000 -0.152922 7.531440 -5.200988 -30.699481 -8.274628 -2.118433 10.391708 4.014582 0.547358 -5.227621 0.681356 5.177025 0.000000 0.000000 0.000000 -0.152922 7.531440 -5.200988 0.000000 0.000000 0.000000 11.463627 -2.100472 1.534706 -0.267883 -2.505730 2.438230 0.000000 0.000000 0.000000 -3.639364 -2.552968 1.545706 -0.519129 -0.372709 0.833258 0.000000 0.000000 0.000000 -3.639364 -2.552968 1.545706 1.771419 -1.312999 -2.562466 -6.915106 -15.688077 -74.148595 10.629446 -15.033028 -6.181485 0.000000 0.000000 0.000000 -3.639364 -2.552968 1.545706 2.484943 2.727735 4.797701 2.953611 5.669616 73.191406 8.978887 15.443462 4.100306 0.000000 0.000000 0.000000 
9.191511 91.259239 27.843372 0.000000 0.000000 0.000000 -0.049191 7.981857 -4.930250 10.549250 9.667783 11.389778 18.666461 -8.572348 -0.801427 -27.500727 4.708101 -3.290750 0.000000 0.000000 0.000000 -0.049191 7.981857 -4.930250 -31.421725 -8.576576 -2.235424 10.282323 4.253057 0.488553 -5.746565 0.438311 4.352578 0.000000 0.000000 0.000000 -0.049191 7.981857 -4.930250 0.000000 0.000000 0.000000 11.997232 -2.262446 1.323250 -0.697593 -2.737816 2.600813 0.000000 0.000000 0.000000 -3.688903 -2.736438 1.848267 -0.645097 -0.335233 0.741894 0.000000 0.000000 0.000000 -3.688903 -2.736438 1.848267 1.797103 -0.815835 -3.374227 -7.440935 -15.961824 -73.641030 11.242129 -15.683035 -6.492488 0.000000 0.000000 0.000000 -3.688903 -2.736438 1.848267 2.535504 2.578136 4.509842 2.885989 5.757747 73.375616 8.576644 15.662382 4.279692 0.000000 0.000000 0.000000 
8.784799 90.751587 30.322002 0.000000 0.000000 0.000000 0.034181 8.227507 -4.679267 12.199340 9.607123 11.843717 18.329439 -8.752936 -0.869257 -27.242612 5.375786 -4.071572 0.000000 0.000000 0.000000 0.034181 8.227507 -4.679267 -33.770508 -8.613382 -2.646970 14.327505 4.068745 0.835258 -5.848740 0.704619 3.471376 0.000000 0.000000 0.000000 0.034181 8.227507 -4.679267 0.000000 0.000000 0.000000 12.367219 -2.291400 1.789003 -1.060286 -2.678121 1.991261 0.000000 0.000000 0.000000 -3.720848 -2.671221 1.359483 -0.788543 -0.408659 0.995812 0.000000 0.000000 0.000000 -3.720848 -2.671221 1.359483 1.768131 -0.999048 -2.674480 -7.807279 -15.922655 -73.792954 11.902953 -16.455645 -6.599652 0.000000 0.000000 0.000000 -3.720848 -2.671221 1.359483 2.575990 1.858236 5.930297 3.132315 6.965189 72.543316 8.164165 16.111892 4.419307 0.000000 0.000000 0.000000 
8.271747 90.448402 33.051090 0.000000 0.000000 0.000000 -0.073241 8.453159 -4.319166 14.351329 9.311025 12.269515 17.223799 -8.728239 -1.006775 -25.668638 6.310521 -5.141703 0.000000 0.000000 0.000000 -0.073241 8.453159 -4.319166 -36.361666 -8.571502 -3.017286 17.910284 3.950849 1.453157 -0.177684 1.562080 1.780029 0.000000 0.000000 0.000000 -0.073241 8.453159 -4.319166 0.000000 0.000000 0.000000 13.106314 -2.369361 1.874855 -1.621719 -2.745519 1.772019 0.000000 0.000000 0.000000 -3.943643 -2.712255 1.273779 -0.947297 -0.373796 1.000607 0.000000 0.000000 0.000000 -3.943643 -2.712255 1.273779 1.817415 -0.486510 -2.569396 -7.445515 -16.441215 -73.688295 11.501765 -17.237994 -6.954210 0.000000 0.000000 0.000000 -3.943643 -2.712255 1.273779 2.636074 1.414697 6.369677 3.201251 8.163652 72.080284 7.311541 16.021214 5.021466 0.000000 0.000000 0.000000 
